<svg width="30" height="22" viewBox="0 0 30 22" fill="none" xmlns="http://www.w3.org/2000/svg">
<g clip-path="url(#clip0_2199_1086)">
<g clip-path="url(#clip1_2199_1086)">
<g clip-path="url(#clip2_2199_1086)">
<path d="M27.4491 0.935303H3.02628C1.74105 0.935303 0.699158 1.97719 0.699158 3.26242V18.53C0.699158 19.8153 1.74105 20.8571 3.02628 20.8571H27.4491C28.7343 20.8571 29.7762 19.8153 29.7762 18.53V3.26242C29.7762 1.97719 28.7343 0.935303 27.4491 0.935303Z" fill="white" stroke="#E0E0E0" stroke-width="0.423113"/>
<path fill-rule="evenodd" clip-rule="evenodd" d="M6.11874 7.9292L3.4375 14.0723H6.64732L7.04524 13.0928H7.9548L8.35273 14.0723H11.8858V13.3248L12.2007 14.0723H14.0282L14.3431 13.3089V14.0723H21.691L22.5845 13.1183L23.4211 14.0723L27.1951 14.0802L24.5054 11.0179L27.1951 7.9292H23.4796L22.6098 8.8656L21.7996 7.9292H13.8061L13.1196 9.51475L12.4171 7.9292H9.21404V8.65133L8.85766 7.9292H6.11874ZM17.0913 8.80151H21.3108L22.6013 10.2448L23.9335 8.80151H25.2241L23.2631 11.0171L25.2241 13.207H23.8749L22.5844 11.7469L21.2454 13.207H17.0913V8.80151ZM18.1331 10.5189V9.71421L20.766 9.71345L21.9148 11.0004L20.715 12.2943H18.1331V11.4158H20.435V10.5189H18.1331ZM6.73975 8.80151H8.30436L10.0829 12.9672V8.80151H11.7968L13.1704 11.7883L14.4364 8.80151H16.1418V13.2096H15.1041L15.0957 9.75541L13.5828 13.2096H12.6545L11.1332 9.75541V13.2096H8.99838L8.59369 12.2214H6.40716L6.00328 13.2087H4.85948L6.73975 8.80151ZM6.78048 11.3077L7.50085 9.5473L8.22039 11.3077H6.78048Z" fill="#1F72CD"/>
</g>
</g>
</g>
<defs>
<clipPath id="clip0_2199_1086">
<rect width="29.6697" height="20.347" fill="white" transform="translate(0.317871 0.722656)"/>
</clipPath>
<clipPath id="clip1_2199_1086">
<rect width="29.6697" height="20.347" fill="white" transform="translate(0.317871 0.722656)"/>
</clipPath>
<clipPath id="clip2_2199_1086">
<rect width="29.6697" height="20.3449" fill="white" transform="translate(0.317871 0.723755)"/>
</clipPath>
</defs>
</svg>
