<svg width="33" height="22" viewBox="0 0 33 22" fill="none" xmlns="http://www.w3.org/2000/svg">
<g clip-path="url(#clip0_2199_1078)">
<g clip-path="url(#clip1_2199_1078)">
<g clip-path="url(#clip2_2199_1078)">
<path opacity="0.07" d="M30.0752 0.723755H2.94841C1.5073 0.723755 0.405273 1.82578 0.405273 3.26689V18.5257C0.405273 19.9668 1.59207 21.0689 2.94841 21.0689H30.0752C31.5163 21.0689 32.6184 19.9668 32.6184 18.5257V3.26689C32.6184 1.82578 31.4316 0.723755 30.0752 0.723755Z" fill="black"/>
<path d="M30.0752 1.57153C31.0077 1.57153 31.7706 2.33447 31.7706 3.26696V18.5258C31.7706 19.4583 31.0077 20.2212 30.0752 20.2212H2.94842C2.01593 20.2212 1.25299 19.4583 1.25299 18.5258V3.26696C1.25299 2.33447 2.01593 1.57153 2.94842 1.57153H30.0752Z" fill="white"/>
<path d="M13.1209 16.8303C16.3982 16.8303 19.0549 14.1735 19.0549 10.8963C19.0549 7.61902 16.3982 4.96228 13.1209 4.96228C9.84369 4.96228 7.18695 7.61902 7.18695 10.8963C7.18695 14.1735 9.84369 16.8303 13.1209 16.8303Z" fill="#EB001B"/>
<path d="M19.9027 16.8303C23.1799 16.8303 25.8367 14.1735 25.8367 10.8963C25.8367 7.61902 23.1799 4.96228 19.9027 4.96228C16.6254 4.96228 13.9687 7.61902 13.9687 10.8963C13.9687 14.1735 16.6254 16.8303 19.9027 16.8303Z" fill="#F79E1B"/>
<path d="M19.055 10.8963C19.055 8.86178 18.0377 7.08159 16.5118 6.06433C14.9859 7.16636 13.9687 8.94655 13.9687 10.8963C13.9687 12.846 14.9859 14.711 16.5118 15.7283C18.0377 14.711 19.055 12.9308 19.055 10.8963Z" fill="#FF5F00"/>
</g>
</g>
</g>
<defs>
<clipPath id="clip0_2199_1078">
<rect width="32.2131" height="20.347" fill="white" transform="translate(0.405273 0.722656)"/>
</clipPath>
<clipPath id="clip1_2199_1078">
<rect width="32.2131" height="20.347" fill="white" transform="translate(0.405273 0.722656)"/>
</clipPath>
<clipPath id="clip2_2199_1078">
<rect width="32.2131" height="20.3451" fill="white" transform="translate(0.405273 0.723755)"/>
</clipPath>
</defs>
</svg>
