<svg width="16" height="13" viewBox="0 0 16 13" fill="none" xmlns="http://www.w3.org/2000/svg">
<path d="M15.7074 4.7621L7.31589 12.2206C6.74792 12.724 5.9953 13 5.19402 13H5.18802C4.38407 12.9982 3.63012 12.7187 3.06349 12.2135L0.296998 9.78899C-0.0956433 9.44507 -0.0996431 8.88371 0.288999 8.53566C0.677641 8.18702 1.31027 8.18407 1.70358 8.52857L4.47673 10.9584C4.67205 11.1327 4.92337 11.2261 5.19202 11.2267H5.19402C5.46067 11.2267 5.71199 11.1345 5.90131 10.9673L14.2921 3.50996C14.6814 3.1625 15.3154 3.1625 15.706 3.50818C16.0973 3.85387 16.098 4.41523 15.708 4.76151L15.7074 4.7621ZM3.34947 6.36229C3.87344 6.83088 4.57206 7.08911 5.31601 7.09088H5.32201C6.06397 7.09088 6.76125 6.83443 7.28989 6.36642L12.7102 1.50972C13.0989 1.16167 13.0955 0.600306 12.7029 0.255805C12.3102 -0.088106 11.6776 -0.0845606 11.2883 0.262305L5.87131 5.11546C5.72465 5.24605 5.52933 5.31755 5.32135 5.31755H5.32001C5.11136 5.31755 4.91604 5.24487 4.77805 5.12137L2.38553 2.9285C2.00156 2.57632 1.36893 2.56745 0.971622 2.90782C0.574981 3.24818 0.564315 3.80896 0.94829 4.16114L3.35014 6.3617L3.34947 6.36229Z" fill="white"/>
</svg>
