<svg width="32" height="22" viewBox="0 0 32 22" fill="none" xmlns="http://www.w3.org/2000/svg">
<g clip-path="url(#clip0_2199_1092)">
<g clip-path="url(#clip1_2199_1092)">
<g clip-path="url(#clip2_2199_1092)">
<mask id="mask0_2199_1092" style="mask-type:luminance" maskUnits="userSpaceOnUse" x="0" y="0" width="32" height="22">
<path d="M31.2076 0.722656H0.687012V21.0697H31.2076V0.722656Z" fill="white"/>
</mask>
<g mask="url(#mask0_2199_1092)">
<path d="M0.898438 3.26613C0.898438 1.97831 1.94242 0.934326 3.23024 0.934326H28.664C29.9519 0.934326 30.9959 1.97831 30.9959 3.26613V18.5264C30.9959 19.8142 29.9519 20.8582 28.664 20.8582H3.23024C1.94242 20.8582 0.898438 19.8142 0.898438 18.5264V3.26613Z" fill="white" stroke="#E0E0E0" stroke-width="0.423157"/>
<path d="M25.5591 10.9627C25.5591 6.41095 21.7599 3.26486 17.597 3.26624H14.0148C9.80235 3.26473 6.33521 6.41191 6.33521 10.9627C6.33521 15.126 9.80244 18.5466 14.0148 18.5264H17.597C21.7595 18.5464 25.5591 15.1249 25.5591 10.9627Z" fill="#0079BE"/>
<path d="M14.0373 3.91003C10.1883 3.91123 7.06931 7.03753 7.06793 10.8959C7.06889 14.7537 10.1879 17.8795 14.0373 17.881C17.8873 17.8798 21.0072 14.7538 21.0077 10.8959C21.0071 7.03743 17.8874 3.91141 14.0373 3.91003Z" fill="white"/>
<path d="M9.63214 10.8787C9.63579 8.99326 10.811 7.38546 12.4681 6.74658V15.0099C10.811 14.3713 9.63579 12.7643 9.63214 10.8787ZM15.63 15.0119V6.74681C17.2878 7.38418 18.4648 8.99289 18.4678 10.8792C18.4647 12.7661 17.2878 14.3734 15.63 15.0119Z" fill="#0079BE"/>
</g>
</g>
</g>
</g>
<defs>
<clipPath id="clip0_2199_1092">
<rect width="30.5206" height="20.347" fill="white" transform="translate(0.687012 0.722656)"/>
</clipPath>
<clipPath id="clip1_2199_1092">
<rect width="30.5206" height="20.347" fill="white" transform="translate(0.687012 0.722656)"/>
</clipPath>
<clipPath id="clip2_2199_1092">
<rect width="30.5206" height="20.347" fill="white" transform="translate(0.687012 0.722656)"/>
</clipPath>
</defs>
</svg>
