<svg width="80" height="80" viewBox="0 0 80 80" fill="none" xmlns="http://www.w3.org/2000/svg">
<path d="M36.5587 5.12464C38.2011 2.6789 41.7989 2.6789 43.4413 5.12464L45.6439 8.40467C46.7995 10.1256 49.0487 10.7283 50.9099 9.81571L54.4574 8.07642C57.1026 6.77952 60.2185 8.57844 60.4179 11.5177L60.6854 15.4596C60.8257 17.5277 62.4723 19.1743 64.5404 19.3146L68.4823 19.5821C71.4216 19.7815 73.2205 22.8974 71.9236 25.5426L70.1843 29.0901C69.2717 30.9513 69.8744 33.2005 71.5953 34.3561L74.8754 36.5587C77.3211 38.2011 77.3211 41.7989 74.8754 43.4413L71.5953 45.6439C69.8744 46.7995 69.2717 49.0487 70.1843 50.9099L71.9236 54.4574C73.2205 57.1026 71.4216 60.2185 68.4823 60.4179L64.5404 60.6854C62.4723 60.8257 60.8257 62.4723 60.6854 64.5404L60.4179 68.4823C60.2185 71.4216 57.1026 73.2205 54.4574 71.9236L50.9099 70.1843C49.0487 69.2717 46.7995 69.8744 45.6439 71.5953L43.4413 74.8754C41.7989 77.3211 38.2011 77.3211 36.5587 74.8754L34.3561 71.5953C33.2005 69.8744 30.9513 69.2717 29.0901 70.1843L25.5426 71.9236C22.8974 73.2205 19.7815 71.4216 19.5821 68.4823L19.3146 64.5404C19.1743 62.4723 17.5277 60.8257 15.4596 60.6854L11.5177 60.4179C8.57844 60.2185 6.77952 57.1026 8.07642 54.4574L9.81571 50.9099C10.7283 49.0487 10.1256 46.7995 8.40467 45.6439L5.12464 43.4413C2.6789 41.7989 2.6789 38.2011 5.12464 36.5587L8.40467 34.3561C10.1256 33.2005 10.7283 30.9513 9.81571 29.0901L8.07642 25.5426C6.77952 22.8974 8.57844 19.7815 11.5177 19.5821L15.4596 19.3146C17.5277 19.1743 19.1743 17.5277 19.3146 15.4596L19.5821 11.5177C19.7815 8.57844 22.8974 6.77952 25.5426 8.07642L29.0901 9.81571C30.9513 10.7283 33.2005 10.1256 34.3561 8.40467L36.5587 5.12464Z" fill="#1500D1"/>
<circle cx="40.0006" cy="40" r="27.7303" fill="#1500D1" stroke="white" stroke-width="0.835643"/>
<path d="M32.3329 46.1293C31.8466 46.1262 31.3773 46.0446 30.9248 45.8846C30.4755 45.7246 30.0723 45.4645 29.7153 45.1044C29.3583 44.7443 29.0752 44.2673 28.8659 43.6733C28.6597 43.0793 28.5566 42.3499 28.5566 41.4851C28.5597 40.6911 28.6505 39.9817 28.829 39.3569C29.0105 38.729 29.2691 38.1966 29.6045 37.7596C29.9431 37.3226 30.3478 36.9902 30.8187 36.7624C31.2896 36.5316 31.8174 36.4162 32.4021 36.4162C33.033 36.4162 33.5901 36.5393 34.0733 36.7855C34.5565 37.0286 34.9443 37.3595 35.2366 37.7781C35.5321 38.1966 35.7106 38.666 35.7722 39.1861H33.8009C33.724 38.8568 33.5624 38.5982 33.3162 38.4105C33.07 38.2228 32.7653 38.1289 32.4021 38.1289C31.7866 38.1289 31.3188 38.3967 30.9987 38.9322C30.6817 39.4677 30.5201 40.1955 30.514 41.1158H30.5786C30.7202 40.8357 30.911 40.5972 31.1511 40.4002C31.3942 40.2002 31.6696 40.0478 31.9774 39.9432C32.2882 39.8355 32.616 39.7816 32.9607 39.7816C33.5208 39.7816 34.0194 39.9139 34.4565 40.1786C34.8935 40.4402 35.2382 40.8003 35.4905 41.2589C35.7429 41.7174 35.8691 42.2422 35.8691 42.8331C35.8691 43.4732 35.7198 44.0426 35.4213 44.5412C35.1258 45.0398 34.7119 45.4306 34.1795 45.7138C33.6501 45.9938 33.0346 46.1323 32.3329 46.1293ZM32.3236 44.5597C32.6314 44.5597 32.9069 44.4858 33.15 44.3381C33.3931 44.1903 33.5839 43.9903 33.7224 43.7379C33.8609 43.4856 33.9302 43.2024 33.9302 42.8885C33.9302 42.5746 33.8609 42.293 33.7224 42.0437C33.587 41.7944 33.3993 41.5959 33.1592 41.4482C32.9192 41.3004 32.6453 41.2266 32.3375 41.2266C32.1067 41.2266 31.8928 41.2696 31.6958 41.3558C31.5019 41.442 31.3311 41.562 31.1834 41.7159C31.0387 41.8698 30.9248 42.0483 30.8418 42.2514C30.7587 42.4515 30.7171 42.6654 30.7171 42.8931C30.7171 43.1978 30.7864 43.4763 30.9248 43.7287C31.0664 43.9811 31.2572 44.1826 31.4973 44.3335C31.7404 44.4843 32.0159 44.5597 32.3236 44.5597ZM40.7395 46.1293C40.087 46.1293 39.5053 46.0092 38.9945 45.7692C38.4866 45.5291 38.0835 45.1983 37.7849 44.7766C37.4864 44.355 37.331 43.8718 37.3187 43.3271H39.2576C39.2791 43.6933 39.433 43.9903 39.7192 44.218C40.0055 44.4458 40.3455 44.5597 40.7395 44.5597C41.0534 44.5597 41.3304 44.4904 41.5704 44.3519C41.8136 44.2103 42.0029 44.0149 42.1383 43.7656C42.2768 43.5133 42.346 43.224 42.346 42.8977C42.346 42.5653 42.2752 42.273 42.1337 42.0206C41.9952 41.7682 41.8028 41.5713 41.5566 41.4297C41.3104 41.2881 41.0288 41.2158 40.7118 41.2127C40.4348 41.2127 40.1655 41.2696 39.9039 41.3835C39.6454 41.4974 39.4438 41.6528 39.2991 41.8498L37.5218 41.5312L37.9696 36.5455H43.7494V38.1797H39.6177L39.373 40.5479H39.4284C39.5946 40.314 39.8454 40.1201 40.1809 39.9663C40.5164 39.8124 40.8918 39.7354 41.3073 39.7354C41.8767 39.7354 42.3845 39.8693 42.8307 40.1371C43.277 40.4048 43.6294 40.7726 43.8879 41.2404C44.1464 41.7051 44.2742 42.2406 44.2711 42.8469C44.2742 43.484 44.1264 44.0503 43.8279 44.5458C43.5324 45.0382 43.1185 45.426 42.5861 45.7092C42.0567 45.9892 41.4412 46.1293 40.7395 46.1293ZM50.8403 44.2273V43.7287C50.8403 43.3501 50.9204 43.0024 51.0804 42.6854C51.2435 42.3653 51.4789 42.1098 51.7867 41.919C52.0976 41.7251 52.4761 41.6282 52.9224 41.6282C53.3748 41.6282 53.7549 41.7236 54.0626 41.9144C54.3735 42.1052 54.6074 42.3607 54.7643 42.6808C54.9244 42.9978 55.0044 43.3471 55.0044 43.7287V44.2273C55.0044 44.6058 54.9244 44.9551 54.7643 45.2752C54.6043 45.5922 54.3689 45.8461 54.058 46.0369C53.7472 46.2308 53.3686 46.3278 52.9224 46.3278C52.4699 46.3278 52.0899 46.2308 51.7821 46.0369C51.4743 45.8461 51.2404 45.5922 51.0804 45.2752C50.9204 44.9551 50.8403 44.6058 50.8403 44.2273ZM52.1837 43.7287V44.2273C52.1837 44.4458 52.236 44.652 52.3407 44.8459C52.4484 45.0398 52.6423 45.1367 52.9224 45.1367C53.2024 45.1367 53.3932 45.0413 53.4948 44.8505C53.5994 44.6597 53.6518 44.4519 53.6518 44.2273V43.7287C53.6518 43.504 53.6025 43.2947 53.504 43.1009C53.4056 42.907 53.2117 42.81 52.9224 42.81C52.6454 42.81 52.453 42.907 52.3453 43.1009C52.2376 43.2947 52.1837 43.504 52.1837 43.7287ZM45.9884 38.8168V38.3182C45.9884 37.9366 46.07 37.5872 46.2331 37.2702C46.3962 36.9502 46.6316 36.6947 46.9394 36.5039C47.2503 36.3131 47.6257 36.2177 48.0658 36.2177C48.5213 36.2177 48.903 36.3131 49.2107 36.5039C49.5185 36.6947 49.7524 36.9502 49.9124 37.2702C50.0725 37.5872 50.1525 37.9366 50.1525 38.3182V38.8168C50.1525 39.1984 50.0709 39.5477 49.9078 39.8647C49.7478 40.1817 49.5123 40.4356 49.2015 40.6264C48.8937 40.8142 48.5152 40.908 48.0658 40.908C47.6165 40.908 47.2364 40.8126 46.9256 40.6218C46.6178 40.4279 46.3839 40.174 46.2239 39.8601C46.0669 39.5431 45.9884 39.1953 45.9884 38.8168ZM47.341 38.3182V38.8168C47.341 39.0414 47.3934 39.2492 47.498 39.44C47.6057 39.6308 47.795 39.7262 48.0658 39.7262C48.349 39.7262 48.5413 39.6308 48.6429 39.44C48.7475 39.2492 48.7998 39.0414 48.7998 38.8168V38.3182C48.7998 38.0935 48.7506 37.8842 48.6521 37.6903C48.5536 37.4964 48.3582 37.3995 48.0658 37.3995C47.7919 37.3995 47.6026 37.498 47.498 37.695C47.3934 37.8919 47.341 38.0997 47.341 38.3182ZM46.5978 46L53.0978 36.5455H54.3073L47.8073 46H46.5978Z" fill="white"/>
<path d="M29.531 56.5262H28.3538V52.8899H29.5683C29.9246 52.8899 30.2306 52.9627 30.4863 53.1083C30.742 53.2527 30.9379 53.4604 31.074 53.7315C31.2113 54.0014 31.28 54.3251 31.28 54.7027C31.28 55.0815 31.2107 55.407 31.0722 55.6793C30.9349 55.9516 30.736 56.1611 30.4756 56.3079C30.2152 56.4534 29.9003 56.5262 29.531 56.5262ZM28.9025 56.0468H29.5008C29.7778 56.0468 30.0081 55.9948 30.1915 55.8906C30.375 55.7852 30.5123 55.6331 30.6035 55.4343C30.6946 55.2342 30.7402 54.9904 30.7402 54.7027C30.7402 54.4175 30.6946 54.1754 30.6035 53.9765C30.5135 53.7777 30.3791 53.6267 30.2004 53.5238C30.0217 53.4208 29.7997 53.3693 29.5346 53.3693H28.9025V56.0468ZM32.5109 52.8899V56.5262H31.9622V52.8899H32.5109ZM35.2932 53.8451C35.2742 53.677 35.1961 53.5468 35.0588 53.4545C34.9215 53.361 34.7487 53.3142 34.5403 53.3142C34.3912 53.3142 34.2622 53.3379 34.1533 53.3853C34.0444 53.4314 33.9597 53.4954 33.8994 53.577C33.8402 53.6575 33.8106 53.7493 33.8106 53.8522C33.8106 53.9387 33.8307 54.0132 33.871 54.076C33.9124 54.1387 33.9662 54.1914 34.0325 54.234C34.1 54.2754 34.1722 54.3103 34.2491 54.3387C34.3261 54.366 34.4001 54.3885 34.4711 54.4062L34.8262 54.4985C34.9422 54.527 35.0612 54.5654 35.1831 54.614C35.305 54.6625 35.4181 54.7264 35.5222 54.8057C35.6264 54.885 35.7104 54.9833 35.7744 55.1005C35.8395 55.2177 35.872 55.3579 35.872 55.5213C35.872 55.7272 35.8188 55.9101 35.7122 56.0699C35.6069 56.2297 35.4536 56.3558 35.2523 56.4481C35.0523 56.5404 34.8102 56.5866 34.5261 56.5866C34.2539 56.5866 34.0183 56.5434 33.8195 56.457C33.6206 56.3706 33.4649 56.2481 33.3525 56.0895C33.24 55.9297 33.1779 55.7403 33.1661 55.5213H33.7165C33.7271 55.6527 33.7697 55.7622 33.8443 55.8498C33.9201 55.9362 34.0165 56.0007 34.1337 56.0433C34.2521 56.0847 34.3817 56.1054 34.5226 56.1054C34.6777 56.1054 34.8156 56.0812 34.9363 56.0326C35.0582 55.9829 35.1541 55.9143 35.2239 55.8267C35.2938 55.7379 35.3287 55.6343 35.3287 55.5159C35.3287 55.4082 35.2979 55.32 35.2364 55.2514C35.176 55.1827 35.0937 55.1259 34.9896 55.0809C34.8866 55.036 34.77 54.9963 34.6398 54.962L34.2101 54.8448C33.9189 54.7655 33.6881 54.6489 33.5176 54.495C33.3483 54.3411 33.2637 54.1375 33.2637 53.8842C33.2637 53.6747 33.3205 53.4918 33.4342 53.3355C33.5478 53.1793 33.7017 53.058 33.8958 52.9716C34.0899 52.884 34.3089 52.8402 34.5528 52.8402C34.799 52.8402 35.0162 52.8834 35.2044 52.9698C35.3938 53.0562 35.5429 53.1752 35.6518 53.3267C35.7607 53.477 35.8176 53.6498 35.8223 53.8451H35.2932ZM39.5479 54.0724H38.9939C38.9726 53.954 38.9329 53.8499 38.8749 53.7599C38.8169 53.6699 38.7459 53.5936 38.6619 53.5309C38.5778 53.4681 38.4837 53.4208 38.3796 53.3888C38.2766 53.3569 38.1671 53.3409 38.0511 53.3409C37.8416 53.3409 37.6539 53.3936 37.4882 53.4989C37.3237 53.6043 37.1935 53.7587 37.0976 53.9623C37.0029 54.1659 36.9556 54.4145 36.9556 54.7081C36.9556 55.004 37.0029 55.2538 37.0976 55.4574C37.1935 55.661 37.3243 55.8148 37.49 55.919C37.6557 56.0232 37.8422 56.0753 38.0493 56.0753C38.1641 56.0753 38.273 56.0599 38.376 56.0291C38.4802 55.9971 38.5743 55.9504 38.6583 55.8888C38.7424 55.8273 38.8134 55.7521 38.8714 55.6633C38.9306 55.5734 38.9714 55.4704 38.9939 55.3544L39.5479 55.3561C39.5183 55.5349 39.4609 55.6994 39.3757 55.8498C39.2916 55.9989 39.1833 56.1279 39.0507 56.2368C38.9193 56.3445 38.769 56.428 38.5997 56.4872C38.4305 56.5464 38.2458 56.576 38.0458 56.576C37.7309 56.576 37.4503 56.5014 37.2041 56.3522C36.9579 56.2019 36.7638 55.9871 36.6218 55.7077C36.4809 55.4284 36.4105 55.0951 36.4105 54.7081C36.4105 54.3198 36.4815 53.9866 36.6235 53.7084C36.7656 53.4291 36.9597 53.2148 37.2059 53.0657C37.4521 52.9153 37.7321 52.8402 38.0458 52.8402C38.2387 52.8402 38.4186 52.868 38.5855 52.9236C38.7536 52.9781 38.9045 53.0586 39.0383 53.1651C39.1721 53.2704 39.2827 53.3995 39.3703 53.5522C39.4579 53.7037 39.5171 53.8771 39.5479 54.0724ZM43.3631 54.7081C43.3631 55.0963 43.2921 55.4301 43.1501 55.7095C43.008 55.9877 42.8133 56.2019 42.5659 56.3522C42.3197 56.5014 42.0397 56.576 41.7261 56.576C41.4112 56.576 41.1301 56.5014 40.8827 56.3522C40.6365 56.2019 40.4423 55.9871 40.3003 55.7077C40.1582 55.4284 40.0872 55.0951 40.0872 54.7081C40.0872 54.3198 40.1582 53.9866 40.3003 53.7084C40.4423 53.4291 40.6365 53.2148 40.8827 53.0657C41.1301 52.9153 41.4112 52.8402 41.7261 52.8402C42.0397 52.8402 42.3197 52.9153 42.5659 53.0657C42.8133 53.2148 43.008 53.4291 43.1501 53.7084C43.2921 53.9866 43.3631 54.3198 43.3631 54.7081ZM42.8198 54.7081C42.8198 54.4121 42.7719 54.163 42.676 53.9605C42.5813 53.757 42.4511 53.6031 42.2854 53.4989C42.1208 53.3936 41.9344 53.3409 41.7261 53.3409C41.5165 53.3409 41.3295 53.3936 41.165 53.4989C41.0005 53.6031 40.8702 53.757 40.7744 53.9605C40.6797 54.163 40.6323 54.4121 40.6323 54.7081C40.6323 55.004 40.6797 55.2538 40.7744 55.4574C40.8702 55.6598 41.0005 55.8137 41.165 55.919C41.3295 56.0232 41.5165 56.0753 41.7261 56.0753C41.9344 56.0753 42.1208 56.0232 42.2854 55.919C42.4511 55.8137 42.5813 55.6598 42.676 55.4574C42.7719 55.2538 42.8198 55.004 42.8198 54.7081ZM46.3856 52.8899H46.936V55.2816C46.936 55.5361 46.8762 55.7616 46.7567 55.9581C46.6371 56.1534 46.4691 56.3073 46.2524 56.4197C46.0358 56.531 45.7819 56.5866 45.4907 56.5866C45.2007 56.5866 44.9474 56.531 44.7308 56.4197C44.5142 56.3073 44.3461 56.1534 44.2265 55.9581C44.107 55.7616 44.0472 55.5361 44.0472 55.2816V52.8899H44.5958V55.2372C44.5958 55.4017 44.6319 55.5479 44.7041 55.6757C44.7775 55.8036 44.8811 55.9042 45.0149 55.9776C45.1486 56.0498 45.3072 56.0859 45.4907 56.0859C45.6754 56.0859 45.8346 56.0498 45.9683 55.9776C46.1033 55.9042 46.2063 55.8036 46.2773 55.6757C46.3495 55.5479 46.3856 55.4017 46.3856 55.2372V52.8899ZM50.6687 52.8899V56.5262H50.1645L48.3161 53.8593H48.2824V56.5262H47.7337V52.8899H48.2415L50.0917 55.5603H50.1254V52.8899H50.6687ZM51.2897 53.3622V52.8899H54.104V53.3622H52.9694V56.5262H52.4225V53.3622H51.2897Z" fill="white"/>
<path d="M28.6157 32.0526V26.2344H32.2634V26.9901H29.4935V28.7628H32.0731V29.5156H29.4935V31.2969H32.2975V32.0526H28.6157ZM34.0468 26.2344L35.4389 28.5099H35.4843L36.8764 26.2344H37.8934L36.0809 29.1435L37.9048 32.0526H36.882L35.4843 29.8082H35.4389L34.0411 32.0526H33.0184L34.8735 29.1435L33.0298 26.2344H34.0468ZM38.4772 26.9901V26.2344H42.98V26.9901H41.1647V32.0526H40.2897V26.9901H38.4772ZM43.9751 32.0526V26.2344H46.0489C46.4997 26.2344 46.8737 26.312 47.1711 26.4673C47.4703 26.6226 47.6938 26.8376 47.8416 27.1122C47.9893 27.3849 48.0631 27.7003 48.0631 28.0582C48.0631 28.4143 47.9883 28.7277 47.8387 28.9986C47.691 29.2675 47.4675 29.4768 47.1683 29.6264C46.8709 29.776 46.4969 29.8508 46.0461 29.8508H44.4751V29.0952H45.9666C46.2506 29.0952 46.4817 29.0544 46.6597 28.973C46.8397 28.8916 46.9713 28.7732 47.0546 28.6179C47.138 28.4626 47.1796 28.276 47.1796 28.0582C47.1796 27.8385 47.137 27.6482 47.0518 27.4872C46.9684 27.3262 46.8368 27.2031 46.6569 27.1179C46.4789 27.0308 46.245 26.9872 45.9552 26.9872H44.8529V32.0526H43.9751ZM46.8472 29.4276L48.2847 32.0526H47.2847L45.8756 29.4276H46.8472ZM49.6228 32.0526H48.691L50.7847 26.2344H51.7989L53.8927 32.0526H52.9609L51.316 27.2912H51.2705L49.6228 32.0526ZM49.7791 29.7741H52.8018V30.5128H49.7791V29.7741Z" fill="white"/>
</svg>
