<svg width="13" height="17" viewBox="0 0 13 17" fill="none" xmlns="http://www.w3.org/2000/svg">
<g clip-path="url(#clip0_2199_1204)">
<g clip-path="url(#clip1_2199_1204)">
<path d="M11.0598 6.83864H10.2506V5.75962C10.2506 3.67723 8.55649 1.98309 6.47408 1.98309C4.39166 1.98309 2.69755 3.67723 2.69755 5.75962V6.83864H1.8883C1.73919 6.83864 1.61853 6.9593 1.61853 7.1084V13.8523C1.61853 14.4473 2.10244 14.9312 2.69755 14.9312H10.2507C10.8457 14.9312 11.3296 14.4473 11.3296 13.8522V7.1084C11.3296 6.9593 11.2089 6.83864 11.0598 6.83864ZM7.28176 12.4737C7.29019 12.5498 7.26571 12.6262 7.2146 12.6834C7.16349 12.7405 7.09025 12.7732 7.0136 12.7732H5.93458C5.85793 12.7732 5.78469 12.7405 5.73358 12.6834C5.68247 12.6263 5.65797 12.5498 5.66641 12.4737L5.83658 10.9434C5.56024 10.7424 5.39508 10.4245 5.39508 10.0757C5.39508 9.48058 5.87899 8.99665 6.4741 8.99665C7.06921 8.99665 7.55312 9.48056 7.55312 10.0757C7.55312 10.4245 7.38795 10.7424 7.11162 10.9434L7.28176 12.4737ZM8.63208 6.83864H4.31607V5.75962C4.31607 4.56971 5.28416 3.60161 6.47408 3.60161C7.66399 3.60161 8.63208 4.56971 8.63208 5.75962V6.83864Z" fill="#828282"/>
</g>
</g>
<defs>
<clipPath id="clip0_2199_1204">
<rect width="12.9481" height="16.6476" fill="white" transform="translate(0 0.133362)"/>
</clipPath>
<clipPath id="clip1_2199_1204">
<rect width="12.9481" height="12.9481" fill="white" transform="translate(0 1.98309)"/>
</clipPath>
</defs>
</svg>
