<svg width="16" height="16" viewBox="0 0 16 16" fill="none" xmlns="http://www.w3.org/2000/svg">
<g clip-path="url(#clip0_2199_1109)">
<path d="M11.6248 6.81336H10.9589V4.81553C10.9589 2.95091 9.49388 1.48584 7.62921 1.48584C5.76459 1.48584 4.29952 2.95091 4.29952 4.81553V6.81336H3.63358C2.90105 6.81336 2.3017 7.41271 2.3017 8.14524V13.4728C2.3017 14.2053 2.90105 14.8046 3.63358 14.8046H11.6248C12.3574 14.8046 12.9567 14.2053 12.9567 13.4728V8.14524C12.9567 7.41271 12.3574 6.81336 11.6248 6.81336ZM5.6314 4.81553C5.6314 3.68344 6.49712 2.81772 7.62921 2.81772C8.76131 2.81772 9.62706 3.68344 9.62706 4.81553V6.81336H5.6314V4.81553ZM3.63358 13.4728V8.14524H11.6248V13.4728H3.63358Z" fill="#828282"/>
</g>
<defs>
<clipPath id="clip0_2199_1109">
<rect width="14.7979" height="14.7979" fill="white" transform="translate(0.230774 0.745972)"/>
</clipPath>
</defs>
</svg>
