<svg width="123" height="32" viewBox="0 0 123 32" fill="none" xmlns="http://www.w3.org/2000/svg">
<g clip-path="url(#clip0_2199_1044)">
<g clip-path="url(#clip1_2199_1044)">
<mask id="mask0_2199_1044" style="mask-type:luminance" maskUnits="userSpaceOnUse" x="4" y="0" width="115" height="32">
<path d="M118.171 0.977539H4.82941V31.0271H118.171V0.977539Z" fill="white"/>
</mask>
<g mask="url(#mask0_2199_1044)">
<path d="M46.18 19.1877C49.5803 19.1877 52.4752 16.7037 52.9947 13.3412C53.5283 9.95042 50.879 6.98938 47.1246 6.98938H41.075C40.8388 6.98938 40.6405 7.15467 40.6027 7.3908L37.9061 24.51C37.8684 24.7509 38.0336 24.9729 38.2745 25.0106C38.2981 25.0106 38.317 25.0154 38.3406 25.0154H41.5425C41.7786 25.0154 41.977 24.8453 42.01 24.6139L42.8034 19.5844C42.8365 19.353 43.0395 19.183 43.2757 19.183H46.18V19.1877ZM48.8577 13.1901C48.6594 14.4416 47.6913 15.3672 45.8353 15.3672H43.4646L44.1824 10.8052H46.5106C48.428 10.8052 49.0514 11.9386 48.8577 13.1901ZM66.8695 12.3873H63.8282C63.5921 12.3873 63.3937 12.5525 63.356 12.7887L63.2568 13.4215C63.2568 13.4215 60.8955 10.843 56.7208 12.5856C54.3264 13.5821 53.1741 15.6458 52.6877 17.1523C52.6877 17.1523 51.134 21.7379 54.6476 24.2645C54.6476 24.2645 57.9061 26.6919 61.5756 24.1133L61.5142 24.5148C61.4764 24.7556 61.6417 24.9776 61.8778 25.0154C61.9014 25.0154 61.925 25.0201 61.9439 25.0201H64.9852C65.2214 25.0201 65.4197 24.8548 65.4575 24.6187L67.3087 12.8926C67.3465 12.6517 67.1812 12.4298 66.9404 12.392C66.9168 12.392 66.8979 12.3873 66.8743 12.3873H66.8695ZM62.3973 18.8666C62.1517 20.5573 60.6924 21.804 58.9876 21.7851C58.6665 21.7851 58.3406 21.7426 58.0336 21.6435C56.7208 21.2231 55.9746 19.9622 56.1919 18.5974C56.4374 16.902 57.9014 15.6553 59.6157 15.6789C59.9416 15.6789 60.2627 15.7214 60.5697 15.8205C61.8778 16.2409 62.6192 17.5018 62.402 18.8666H62.3973Z" fill="#003087"/>
<path d="M89.9534 19.1877C93.3583 19.1877 96.2532 16.7084 96.7775 13.3412C97.3111 9.95042 94.6617 6.98938 90.9026 6.98938H84.853C84.6169 6.98938 84.4185 7.15939 84.3808 7.3908L81.6747 24.5148C81.6417 24.7084 81.7456 24.902 81.925 24.9823C81.9817 25.0106 82.0431 25.0248 82.1092 25.0248H85.3111C85.5472 25.0248 85.7456 24.8548 85.7834 24.6234L86.5767 19.5939C86.6098 19.3625 86.8129 19.1924 87.049 19.1924H89.9534V19.1877ZM92.6311 13.1901C92.4327 14.4416 91.4646 15.3672 89.6086 15.3672H87.2379L87.9557 10.8052H90.2839C92.2013 10.8052 92.8247 11.9386 92.6263 13.1901H92.6311ZM110.643 12.3873H107.606C107.37 12.3873 107.172 12.5573 107.134 12.7887L107.035 13.4215C107.035 13.4215 104.674 10.843 100.499 12.5856C98.1045 13.5821 96.9522 15.6458 96.461 17.1523C96.461 17.1523 94.9073 21.7379 98.4209 24.2645C98.4209 24.2645 101.679 26.6919 105.349 24.1133L105.287 24.5148C105.254 24.7084 105.358 24.902 105.538 24.9823C105.594 25.0106 105.656 25.0248 105.722 25.0248H108.763C108.999 25.0248 109.198 24.8595 109.236 24.6234L111.087 12.8973C111.106 12.7698 111.068 12.6423 110.988 12.5431C110.903 12.4439 110.78 12.3873 110.652 12.392L110.643 12.3873ZM106.171 18.8666C105.93 20.5573 104.466 21.8087 102.761 21.7851C102.435 21.7851 102.114 21.7426 101.807 21.6435C100.494 21.2231 99.7479 19.9622 99.9605 18.5974C100.206 16.9067 101.665 15.66 103.37 15.6789C103.696 15.6789 104.017 15.7214 104.324 15.8205C105.642 16.2409 106.388 17.5018 106.171 18.8666Z" fill="#0070E0"/>
<path d="M78.0289 12.6753L74.3642 18.8618L72.5036 12.7225C72.4422 12.5242 72.258 12.3872 72.0502 12.3872H68.7444C68.5508 12.3872 68.3902 12.5383 68.3855 12.732C68.3855 12.7745 68.3902 12.817 68.4044 12.8547L71.7385 23.1971L68.7255 28.0708C68.6216 28.2361 68.6688 28.4533 68.8341 28.5572C68.8908 28.595 68.9569 28.6139 69.0278 28.6139H72.5886C72.7964 28.6139 72.99 28.5053 73.0939 28.3305L82.402 12.9303C82.5059 12.765 82.454 12.5478 82.2887 12.4439C82.232 12.4061 82.1659 12.3872 82.0951 12.3919H78.5343C78.3265 12.3919 78.1328 12.4958 78.0242 12.6753H78.0289Z" fill="#003087"/>
<path d="M114.062 7.38604L111.356 24.51C111.323 24.7036 111.427 24.8973 111.606 24.9775C111.663 25.0059 111.724 25.02 111.79 25.02H114.992C115.228 25.02 115.427 24.85 115.465 24.6186L118.171 7.49465C118.189 7.36715 118.156 7.23964 118.071 7.14046C117.986 7.04129 117.868 6.98934 117.736 6.98462H114.534C114.298 6.98462 114.1 7.15463 114.062 7.38604Z" fill="#0070E0"/>
<path d="M28.8247 14.8099C28.1399 18.7249 24.9428 21.6859 20.7491 21.6859H18.0856C17.5425 21.6859 16.9947 22.1865 16.9097 22.7438L15.7432 30.144C15.6771 30.5643 15.4788 30.706 15.0537 30.706H10.7704C10.3359 30.706 10.2367 30.5596 10.2981 30.1345L10.7893 25.02L5.65115 24.7556C5.21667 24.7556 5.06083 24.5194 5.12222 24.0897L8.6358 1.85119C8.70191 1.43088 8.96638 1.2467 9.3914 1.2467H18.284C22.5626 1.2467 25.2733 4.12746 25.6039 7.863C28.1494 9.582 29.3395 11.8724 28.8247 14.8051V14.8099Z" fill="#001C64"/>
<path d="M12.1022 16.732L10.7987 25.0154L9.97701 30.2149C9.92034 30.6022 10.1848 30.9611 10.5673 31.0177C10.6004 31.0225 10.6334 31.0272 10.6712 31.0272H15.1907C15.6157 31.0272 15.9794 30.7155 16.0455 30.2952L17.2356 22.7438C17.3017 22.3235 17.6653 22.0118 18.0903 22.0118H20.7539C24.9428 22.0071 28.5083 18.9516 29.1506 14.8099C29.6134 11.8678 28.1305 9.19011 25.5992 7.8678C25.5945 8.17949 25.5661 8.4959 25.5189 8.80286C24.8719 12.9398 21.3111 15.9953 17.1222 16H12.9569C12.5319 16 12.1683 16.3117 12.1022 16.732Z" fill="#0070E0"/>
<path d="M10.7987 25.02H5.53307C5.1411 25.02 4.82941 24.6989 4.82941 24.3117C4.82941 24.2786 4.82941 24.2408 4.83885 24.2078L8.38549 1.70953C8.4516 1.28923 8.81524 0.977539 9.24027 0.977539H18.2792C22.5579 0.977539 25.67 4.09442 25.5992 7.86774C24.461 7.28214 23.1954 6.9799 21.9109 6.98935H14.3737C13.9487 6.98935 13.585 7.30103 13.5189 7.72134L12.0974 16.7367L10.794 25.02H10.7987Z" fill="#003087"/>
</g>
</g>
</g>
<defs>
<clipPath id="clip0_2199_1044">
<rect width="123" height="32" fill="white"/>
</clipPath>
<clipPath id="clip1_2199_1044">
<rect width="113.341" height="32" fill="white" transform="translate(4.82941)"/>
</clipPath>
</defs>
</svg>
