<svg width="16" height="16" viewBox="0 0 16 16" fill="none" xmlns="http://www.w3.org/2000/svg">
<g clip-path="url(#clip0_2199_1120)">
<g clip-path="url(#clip1_2199_1120)">
<mask id="mask0_2199_1120" style="mask-type:luminance" maskUnits="userSpaceOnUse" x="0" y="1" width="16" height="15">
<path d="M15.0286 1.01819H0.230774V15.816H15.0286V1.01819Z" fill="white"/>
</mask>
<g mask="url(#mask0_2199_1120)">
<mask id="mask1_2199_1120" style="mask-type:luminance" maskUnits="userSpaceOnUse" x="0" y="1" width="16" height="15">
<path d="M15.0286 1.01819H0.230774V15.816H15.0286V1.01819Z" fill="white"/>
</mask>
<g mask="url(#mask1_2199_1120)">
<path d="M15.0286 8.41711C15.0286 4.3308 11.716 1.01819 7.6297 1.01819C3.54338 1.01819 0.230774 4.3308 0.230774 8.41711C0.230774 12.5035 3.54338 15.816 7.6297 15.816C11.716 15.816 15.0286 12.5035 15.0286 8.41711Z" fill="#BDBDBD"/>
<path d="M5.07458 6.68578C5.07458 6.36243 5.1784 6.0348 5.38603 5.70291C5.59367 5.37102 5.89662 5.09614 6.29489 4.87828C6.6932 4.66055 7.15783 4.55162 7.68878 4.55151C8.18225 4.55151 8.61795 4.64258 8.99588 4.82469C9.3738 5.00682 9.66571 5.25446 9.87159 5.56762C10.0741 5.86957 10.1817 6.22519 10.1805 6.58876C10.1805 6.87809 10.1218 7.13169 10.0042 7.34955C9.89406 7.55772 9.75283 7.74794 9.58553 7.91372C9.42388 8.07204 9.13371 8.3384 8.71503 8.7128C8.61721 8.80035 8.52431 8.89324 8.43677 8.99107C8.37629 9.05781 8.32402 9.13156 8.28107 9.21073C8.24808 9.27428 8.22157 9.341 8.20194 9.40986C8.18317 9.47626 8.15507 9.59283 8.11766 9.75957C8.05296 10.1136 7.85044 10.2907 7.51011 10.2906C7.42785 10.2927 7.34598 10.2785 7.26928 10.2486C7.19258 10.2188 7.12256 10.1741 7.06331 10.117C6.94244 10.0014 6.88203 9.82948 6.88207 9.60131C6.88207 9.31539 6.92631 9.06779 7.01479 8.85852C7.09919 8.6555 7.21842 8.46879 7.3671 8.30681C7.55485 8.10885 7.75252 7.92054 7.95936 7.74262C8.17719 7.55204 8.33464 7.40822 8.43171 7.31117C8.52807 7.21502 8.61055 7.10589 8.67674 6.98694C8.74295 6.8684 8.77726 6.73469 8.77628 6.59891C8.77828 6.46891 8.75218 6.34002 8.69975 6.22105C8.64732 6.10209 8.56981 5.99585 8.47251 5.90961C8.26993 5.72249 8.00869 5.62888 7.68878 5.62881C7.31432 5.62881 7.03862 5.72322 6.86166 5.91205C6.6847 6.10088 6.53491 6.37913 6.41229 6.74682C6.29655 7.1317 6.07701 7.32414 5.75367 7.32414C5.66364 7.32594 5.57423 7.30894 5.49114 7.27421C5.40805 7.23948 5.33312 7.1878 5.27116 7.12247C5.14011 6.98795 5.07458 6.8424 5.07458 6.68578ZM7.56627 12.2818C7.36622 12.2846 7.17232 12.2127 7.0225 12.0801C6.86755 11.9457 6.7901 11.7576 6.79016 11.5159C6.78799 11.415 6.80685 11.3149 6.84552 11.2216C6.8842 11.1285 6.94183 11.0443 7.01479 10.9747C7.08723 10.9029 7.17341 10.8464 7.26816 10.8087C7.36292 10.771 7.4643 10.7527 7.56627 10.755C7.66658 10.7536 7.76616 10.7722 7.85912 10.81C7.95207 10.8477 8.03652 10.9037 8.10745 10.9746C8.17838 11.0456 8.23435 11.1301 8.27205 11.223C8.30976 11.316 8.32842 11.4156 8.32694 11.5159C8.32694 11.7542 8.25033 11.9414 8.09714 12.0775C7.95245 12.2104 7.76271 12.2834 7.56627 12.2818Z" fill="white"/>
</g>
</g>
</g>
</g>
<defs>
<clipPath id="clip0_2199_1120">
<rect width="14.7979" height="14.7979" fill="white" transform="translate(0.230774 0.935669)"/>
</clipPath>
<clipPath id="clip1_2199_1120">
<rect width="14.7979" height="15.7227" fill="white" transform="translate(0.230774 0.935669)"/>
</clipPath>
</defs>
</svg>
