<svg width="35" height="42" viewBox="0 0 35 42" fill="none" xmlns="http://www.w3.org/2000/svg">
<g clip-path="url(#clip0_2199_1133)">
<g clip-path="url(#clip1_2199_1133)">
<g clip-path="url(#clip2_2199_1133)">
<mask id="mask0_2199_1133" style="mask-type:luminance" maskUnits="userSpaceOnUse" x="0" y="1" width="35" height="40">
<path d="M34.1163 1.05371H0.821167V40.648H34.1163V1.05371Z" fill="white"/>
</mask>
<g mask="url(#mask0_2199_1133)">
<path fill-rule="evenodd" clip-rule="evenodd" d="M11.0717 34.697V40.648H12.1922V38.4444H13.184L14.2781 40.648H15.5147L14.3139 38.349C15.0749 38.1205 15.5856 37.471 15.5856 36.5712C15.5856 35.4397 14.8059 34.697 13.6854 34.697H11.0717ZM16.2968 34.69V40.648H17.4173V34.69H16.2968ZM22.849 34.69V40.648H23.9695V34.69H22.849ZM29.6382 34.69V40.6472H31.6741C33.2695 40.6472 34.1163 39.8576 34.1163 38.2293V37.1056C34.1163 35.4819 33.2695 34.69 31.6741 34.69H29.6382ZM0.821167 34.6884L2.47423 40.6464H4.2193L5.8747 34.6884H4.7238L3.39901 39.6511H3.29686L1.97441 34.6884H0.821167ZM6.38934 34.6884V40.6464H10.3395V39.6253H7.50905V38.1572H10.0541V37.1306H7.50905V35.7081H10.292V34.6884H6.38934ZM18.4021 34.6884V40.6464H19.5226V38.1714H22.017V37.1471H19.5226V35.7104H22.1862V34.6884H18.4021ZM24.9535 34.6884V40.6464H28.9061V39.6253H26.0741V38.1549H28.6184V37.1306H26.0741V35.7104H28.8562V34.6884H24.9535ZM32.9959 37.0743V38.2653C32.9959 39.1315 32.6489 39.626 31.6929 39.626H30.758V35.7089H31.6929C32.6489 35.7089 32.9959 36.2026 32.9959 37.0743ZM14.466 36.5712C14.466 37.0892 14.1088 37.421 13.574 37.421H12.1922V35.719H13.574C14.1088 35.719 14.466 36.0508 14.466 36.5712ZM27.5353 23.8768V32.4599H29.4971V28.8393C29.4971 28.3166 29.6445 27.9199 29.9369 27.6484C30.2293 27.3784 30.57 27.2423 30.9623 27.2423C31.7561 27.2423 32.1537 27.758 32.1537 28.7916V32.4599H34.1156V28.3785C34.1156 27.5459 33.8637 26.8792 33.3568 26.3807C32.85 25.8815 32.2293 25.6335 31.4948 25.6335C30.7548 25.6335 30.0913 25.9199 29.4971 26.495V23.8768H27.5353ZM21.8946 26.7532C21.2599 27.3714 20.9387 28.1734 20.9387 29.1547C20.9387 30.1399 21.2552 30.9349 21.8829 31.5459C22.513 32.1548 23.2857 32.4599 24.1996 32.4599C25.1126 32.4599 25.9618 32.0304 26.7462 31.1688L25.7403 29.9755C25.2857 30.5725 24.775 30.8707 24.2112 30.8707C23.7808 30.8707 23.405 30.7205 23.0837 30.4169C22.7648 30.1164 22.6034 29.6915 22.6034 29.1445C22.6034 28.5983 22.7648 28.1734 23.0837 27.8652C23.405 27.5576 23.7878 27.4073 24.2346 27.4073C24.513 27.4073 24.7937 27.4738 25.0767 27.6101C25.3598 27.7438 25.6 27.9371 25.7949 28.1828L26.6775 26.9629C26.34 26.5881 25.9446 26.3064 25.4955 26.1155C25.0478 25.9245 24.6034 25.8291 24.1637 25.8291C23.288 25.8291 22.5348 26.1374 21.8946 26.7532ZM9.05373 26.7235C8.46892 27.3228 8.17651 28.1273 8.17651 29.1391C8.17651 30.1516 8.46424 30.956 9.03969 31.5569C9.6128 32.1587 10.3356 32.4591 11.216 32.4591C12.0956 32.4591 12.8589 32.118 13.5108 31.4333L12.607 30.3472C12.2429 30.7674 11.7766 30.9771 11.2113 30.9771C10.8588 30.9771 10.5422 30.8675 10.2647 30.6453C9.98397 30.4207 9.81944 30.1344 9.76954 29.7838H13.9864V28.8291C13.9864 27.8957 13.7057 27.1632 13.1513 26.628C12.5977 26.0936 11.9193 25.8283 11.1232 25.8283C10.3286 25.8283 9.6362 26.1272 9.05373 26.7235ZM15.004 26.75L15.7533 27.9074C15.9747 27.7235 16.2477 27.5733 16.5713 27.4465C16.8949 27.3252 17.2013 27.2626 17.4922 27.2626C18.1674 27.2626 18.5074 27.6045 18.5074 28.2892V28.3253H17.2567C16.4831 28.3253 15.8749 28.4872 15.4274 28.8143C14.9806 29.1437 14.7592 29.6328 14.7592 30.2916C14.7592 30.9482 14.9759 31.4732 15.4063 31.8676C15.8367 32.2612 16.3693 32.4591 17.0063 32.4591C17.6442 32.4591 18.1744 32.1681 18.6072 31.5882V32.3637H20.1792V28.2681C20.1792 27.423 19.9483 26.8025 19.4875 26.4128C19.0283 26.0239 18.4333 25.8283 17.7035 25.8283C16.6929 25.8283 15.7915 26.1343 15.004 26.75ZM0.821167 23.4886V32.0718H2.69958V29.3315H4.00098L5.86535 32.0718H8.17729L6.04625 28.9998C7.11606 28.5991 7.64629 27.711 7.64629 26.3362C7.64629 25.3361 7.3687 24.6131 6.81196 24.1615C6.25288 23.7132 5.32108 23.4886 4.01267 23.4886H0.821167ZM18.4956 29.9145C18.4956 30.2416 18.381 30.5021 18.1526 30.6977C17.9296 30.8934 17.6653 30.9912 17.3681 30.9912C17.0711 30.9912 16.8426 30.9294 16.6835 30.8049C16.5237 30.6814 16.4434 30.5044 16.4434 30.2729C16.4434 29.8268 16.7763 29.6046 17.4469 29.6046H18.4956V29.9145ZM11.9622 27.621C12.186 27.8291 12.3147 28.1225 12.3497 28.5044H9.81243C9.85531 28.139 10.0097 27.848 10.274 27.6335C10.5399 27.4184 10.8308 27.3112 11.1513 27.3112C11.4702 27.3112 11.7415 27.4136 11.9622 27.621ZM5.37333 25.3909C5.61349 25.563 5.73201 25.8808 5.73201 26.3432C5.73201 26.8064 5.61817 27.1429 5.38502 27.3557C5.15188 27.5678 4.71444 27.675 4.07193 27.675H2.69958V25.1335H4.1078C4.71211 25.1335 5.13316 25.2195 5.37333 25.3909ZM8.95314 23.4879V24.6577H26.3735V23.4879H8.95314ZM8.72935 9.82787C8.72935 14.6645 12.6507 18.6004 17.4711 18.6004C22.2876 18.6004 26.2112 14.6645 26.2112 9.82787C26.2112 8.19319 25.7598 6.60082 24.9083 5.22128C24.7532 4.96619 24.4873 4.79873 24.1925 4.76274C23.8946 4.73222 23.5976 4.83238 23.3885 5.04443L16.9767 11.4844L14.1993 8.69634C13.8188 8.31213 13.2004 8.31213 12.8199 8.69634C12.4394 9.07899 12.4394 9.6995 12.8199 10.0814L16.2867 13.5611C16.6672 13.943 17.2855 13.943 17.666 13.5611L23.8119 7.39349C24.1067 8.16425 24.2587 8.98821 24.2587 9.82787C24.2587 13.5854 21.2146 16.6402 17.4711 16.6402C13.7283 16.6402 10.6818 13.5854 10.6818 9.82787C10.6818 6.07107 13.7283 3.01308 17.4711 3.01308C18.8247 3.01308 20.1347 3.4145 21.2552 4.17117C21.6996 4.46931 22.3087 4.35506 22.608 3.9059C22.9106 3.45519 22.7913 2.84641 22.3445 2.5428C20.9004 1.56703 19.2146 1.05371 17.4711 1.05371C12.6507 1.05371 8.72935 4.98966 8.72935 9.82787Z" fill="#AAAAAA"/>
</g>
</g>
</g>
</g>
<defs>
<clipPath id="clip0_2199_1133">
<rect width="33.2952" height="40.6941" fill="white" transform="translate(0.821167 0.504517)"/>
</clipPath>
<clipPath id="clip1_2199_1133">
<rect width="33.2952" height="40.6941" fill="white" transform="translate(0.821167 0.504517)"/>
</clipPath>
<clipPath id="clip2_2199_1133">
<rect width="33.2952" height="40.6941" fill="white" transform="translate(0.821167 0.504517)"/>
</clipPath>
</defs>
</svg>
