<svg width="22" height="22" viewBox="0 0 22 22" fill="none" xmlns="http://www.w3.org/2000/svg">
<path d="M7.51596 4.99236L7.85481 4.3847C9.16409 2.03589 9.81883 0.861465 10.7975 0.861465C11.7762 0.861465 12.431 2.03587 13.7403 4.3847L14.0791 4.99238C14.451 5.65982 14.6371 5.99354 14.9272 6.21374C15.2172 6.43393 15.5786 6.51568 16.3011 6.67915L16.9588 6.82798C19.5015 7.40327 20.7727 7.69091 21.0752 8.6636C21.3776 9.6361 20.511 10.6495 18.7777 12.6766L18.329 13.2009C17.8366 13.7769 17.5904 14.0649 17.4796 14.4213C17.3687 14.7775 17.406 15.1618 17.4804 15.9303L17.5482 16.6299C17.8103 19.3342 17.9412 20.6865 17.1494 21.2875C16.3576 21.8887 15.1674 21.3406 12.7868 20.2445L12.1709 19.9609C11.4942 19.6495 11.156 19.4936 10.7975 19.4936C10.4391 19.4936 10.1008 19.6495 9.42417 19.9609L8.80829 20.2445C6.42775 21.3406 5.23747 21.8887 4.44562 21.2875C3.65379 20.6865 3.78482 19.3342 4.04688 16.6299L4.11467 15.9303C4.18914 15.1618 4.22637 14.7775 4.11558 14.4213C4.00479 14.0649 3.7585 13.7769 3.26594 13.2009L2.81751 12.6766C1.08414 10.6495 0.217469 9.6361 0.519929 8.6636C0.822388 7.69091 2.09369 7.40325 4.63623 6.82798L5.29401 6.67915C6.01655 6.51568 6.3778 6.43393 6.66792 6.21374C6.95797 5.99354 7.14404 5.65982 7.51596 4.99236Z" fill="#1500D1"/>
</svg>
