<svg width="33" height="22" viewBox="0 0 33 22" fill="none" xmlns="http://www.w3.org/2000/svg">
<g clip-path="url(#clip0_2199_1072)">
<g clip-path="url(#clip1_2199_1072)">
<g clip-path="url(#clip2_2199_1072)">
<path opacity="0.07" d="M30.172 0.723755H3.04515C1.60404 0.723755 0.502014 1.82578 0.502014 3.26689V18.5257C0.502014 19.9668 1.68881 21.0689 3.04515 21.0689H30.172C31.6131 21.0689 32.7151 19.9668 32.7151 18.5257V3.26689C32.7151 1.82578 31.5283 0.723755 30.172 0.723755Z" fill="black"/>
<path d="M30.1719 1.57153C31.1044 1.57153 31.8673 2.33447 31.8673 3.26696V18.5258C31.8673 19.4583 31.1044 20.2212 30.1719 20.2212H3.0451C2.11261 20.2212 1.34967 19.4583 1.34967 18.5258V3.26696C1.34967 2.33447 2.11261 1.57153 3.0451 1.57153H30.1719Z" fill="white"/>
<path d="M24.4922 9.28557H24.2379C23.8988 10.1333 23.6445 10.5571 23.3902 11.8287H25.0009C24.7466 10.5571 24.7466 9.96374 24.4922 9.28557ZM26.9506 14.2871H25.5095C25.4247 14.2871 25.4247 14.2871 25.34 14.2023L25.1704 13.4394L25.0856 13.2698H23.0511C22.9664 13.2698 22.8816 13.2698 22.8816 13.4394L22.6273 14.2023C22.6273 14.2871 22.5425 14.2871 22.5425 14.2871H20.7623L20.9319 13.8632L23.3902 8.09877C23.3902 7.67491 23.6445 7.50537 24.0684 7.50537H25.34C25.4247 7.50537 25.5095 7.50537 25.5095 7.67491L26.6963 13.185C26.7811 13.5241 26.8658 13.7784 26.8658 14.1175C26.9506 14.2023 26.9506 14.2023 26.9506 14.2871ZM15.5913 14.0328L15.9303 12.5069C16.0151 12.5069 16.0999 12.5916 16.0999 12.5916C16.6933 12.846 17.2867 13.0155 17.8801 12.9307C18.0496 12.9307 18.3039 12.846 18.4735 12.7612C18.8973 12.5916 18.8973 12.1678 18.5583 11.8287C18.3887 11.6592 18.1344 11.5744 17.8801 11.4048C17.541 11.2353 17.2019 11.0658 16.9476 10.8114C15.9303 9.96374 16.2694 8.77694 16.8628 8.18354C17.3715 7.84446 17.6258 7.50537 18.3039 7.50537C19.3212 7.50537 20.4232 7.50537 20.9319 7.67491H21.0166C20.9319 8.18354 20.8471 8.6074 20.6775 9.11602C20.2537 8.94648 19.8298 8.77694 19.406 8.77694C19.1517 8.77694 18.8973 8.77694 18.643 8.86171C18.4735 8.86171 18.3887 8.94648 18.3039 9.03125C18.1344 9.2008 18.1344 9.45511 18.3039 9.62465L18.7278 9.96374C19.0669 10.1333 19.406 10.3028 19.6603 10.4724C20.0841 10.7267 20.508 11.1505 20.5928 11.6592C20.7623 12.4221 20.508 13.1003 19.8298 13.6089C19.406 13.948 19.2364 14.1175 18.643 14.1175C17.4562 14.1175 16.5237 14.2023 15.7608 13.948C15.676 14.1175 15.676 14.1175 15.5913 14.0328ZM12.6243 14.2871C12.709 13.6937 12.709 13.6937 12.7938 13.4394C13.2177 11.5744 13.6415 9.62465 13.9806 7.75969C14.0654 7.59014 14.0654 7.50537 14.2349 7.50537H15.7608C15.5913 8.52263 15.4217 9.28557 15.1674 10.2181C14.9131 11.4896 14.6588 12.7612 14.3197 14.0328C14.3197 14.2023 14.2349 14.2023 14.0654 14.2023M4.74054 7.67491C4.74054 7.59014 4.91008 7.50537 4.99485 7.50537H7.87708C8.30093 7.50537 8.64002 7.75969 8.72479 8.18354L9.48773 11.9135C9.48773 11.9982 9.48773 11.9982 9.5725 12.083C9.5725 11.9982 9.65727 11.9982 9.65727 11.9982L11.4375 7.67491C11.3527 7.59014 11.4375 7.50537 11.5222 7.50537H13.3024C13.3024 7.59014 13.3024 7.59014 13.2177 7.67491L10.5898 13.8632C10.505 14.0328 10.505 14.1175 10.4202 14.2023C10.3354 14.2871 10.1659 14.2023 9.99636 14.2023H8.72479C8.64002 14.2023 8.55525 14.2023 8.55525 14.0328L7.19891 8.77694C7.02936 8.6074 6.77505 8.35308 6.43596 8.26831C5.92734 8.014 4.99485 7.84446 4.82531 7.84446L4.74054 7.67491Z" fill="#142688"/>
</g>
</g>
</g>
<defs>
<clipPath id="clip0_2199_1072">
<rect width="32.2131" height="20.347" fill="white" transform="translate(0.502014 0.722656)"/>
</clipPath>
<clipPath id="clip1_2199_1072">
<rect width="32.2131" height="20.347" fill="white" transform="translate(0.502014 0.722656)"/>
</clipPath>
<clipPath id="clip2_2199_1072">
<rect width="32.2131" height="20.3451" fill="white" transform="translate(0.502014 0.723755)"/>
</clipPath>
</defs>
</svg>
